<svg xmlns="http://www.w3.org/2000/svg" xmlns:xlink="http://www.w3.org/1999/xlink" width="48" zoomAndPan="magnify" viewBox="0 0 36 36.000001" height="48" preserveAspectRatio="xMidYMid meet" version="1.0"><defs><g/><clipPath id="d44f660444"><path d="M 0.488281 0 L 35.511719 0 L 35.511719 35.027344 L 0.488281 35.027344 Z M 0.488281 0 " clip-rule="nonzero"/></clipPath><clipPath id="057b6409e1"><path d="M 8.476562 8.1875 L 10.667969 8.1875 L 10.667969 10.375 L 8.476562 10.375 Z M 8.476562 8.1875 " clip-rule="nonzero"/></clipPath><clipPath id="d04133bb01"><rect x="0" width="24" y="0" height="13"/></clipPath><clipPath id="820a023572"><path d="M 7 0.0820312 L 11 0.0820312 L 11 5 L 7 5 Z M 7 0.0820312 " clip-rule="nonzero"/></clipPath><clipPath id="6fb75fb816"><path d="M 10 0.0820312 L 12 0.0820312 L 12 5 L 10 5 Z M 10 0.0820312 " clip-rule="nonzero"/></clipPath><clipPath id="92005616da"><path d="M 11 1 L 14.773438 1 L 14.773438 5 L 11 5 Z M 11 1 " clip-rule="nonzero"/></clipPath><clipPath id="49a1d2d900"><rect x="0" width="15" y="0" height="7"/></clipPath></defs><g clip-path="url(#d44f660444)"><path fill="#000000" d="M 35.511719 17.511719 C 35.511719 18.085938 35.484375 18.660156 35.429688 19.230469 C 35.371094 19.800781 35.289062 20.367188 35.175781 20.929688 C 35.066406 21.492188 34.925781 22.046875 34.757812 22.597656 C 34.59375 23.144531 34.398438 23.6875 34.179688 24.214844 C 33.960938 24.746094 33.714844 25.261719 33.445312 25.769531 C 33.175781 26.273438 32.878906 26.765625 32.5625 27.242188 C 32.242188 27.71875 31.902344 28.179688 31.539062 28.625 C 31.175781 29.066406 30.789062 29.492188 30.382812 29.898438 C 29.976562 30.304688 29.554688 30.6875 29.109375 31.050781 C 28.667969 31.414062 28.207031 31.757812 27.730469 32.074219 C 27.253906 32.394531 26.761719 32.6875 26.253906 32.960938 C 25.75 33.230469 25.230469 33.472656 24.703125 33.695312 C 24.171875 33.914062 23.632812 34.105469 23.082031 34.273438 C 22.535156 34.4375 21.980469 34.578125 21.417969 34.691406 C 20.855469 34.800781 20.289062 34.886719 19.714844 34.941406 C 19.144531 35 18.574219 35.027344 18 35.027344 C 17.425781 35.027344 16.855469 35 16.285156 34.941406 C 15.710938 34.886719 15.144531 34.800781 14.582031 34.691406 C 14.019531 34.578125 13.464844 34.4375 12.917969 34.273438 C 12.367188 34.105469 11.828125 33.914062 11.296875 33.695312 C 10.769531 33.472656 10.25 33.230469 9.746094 32.960938 C 9.238281 32.6875 8.746094 32.394531 8.269531 32.074219 C 7.792969 31.757812 7.332031 31.414062 6.890625 31.050781 C 6.445312 30.6875 6.023438 30.304688 5.617188 29.898438 C 5.210938 29.492188 4.824219 29.066406 4.460938 28.625 C 4.097656 28.179688 3.757812 27.71875 3.4375 27.242188 C 3.121094 26.765625 2.824219 26.273438 2.554688 25.769531 C 2.285156 25.261719 2.039062 24.746094 1.820312 24.214844 C 1.601562 23.6875 1.40625 23.144531 1.242188 22.597656 C 1.074219 22.046875 0.933594 21.492188 0.824219 20.929688 C 0.710938 20.367188 0.628906 19.800781 0.570312 19.230469 C 0.515625 18.660156 0.488281 18.085938 0.488281 17.511719 C 0.488281 16.941406 0.515625 16.367188 0.570312 15.796875 C 0.628906 15.226562 0.710938 14.660156 0.824219 14.097656 C 0.933594 13.535156 1.074219 12.976562 1.242188 12.429688 C 1.40625 11.878906 1.601562 11.339844 1.820312 10.8125 C 2.039062 10.28125 2.285156 9.761719 2.554688 9.257812 C 2.824219 8.75 3.121094 8.261719 3.4375 7.785156 C 3.757812 7.304688 4.097656 6.847656 4.460938 6.402344 C 4.824219 5.960938 5.210938 5.535156 5.617188 5.128906 C 6.023438 4.722656 6.445312 4.339844 6.890625 3.976562 C 7.332031 3.613281 7.792969 3.269531 8.269531 2.953125 C 8.746094 2.632812 9.238281 2.339844 9.746094 2.066406 C 10.25 1.796875 10.769531 1.550781 11.296875 1.332031 C 11.828125 1.113281 12.367188 0.921875 12.917969 0.753906 C 13.464844 0.585938 14.019531 0.449219 14.582031 0.335938 C 15.144531 0.226562 15.710938 0.140625 16.285156 0.0859375 C 16.855469 0.0273438 17.425781 0 18 0 C 18.574219 0 19.144531 0.0273438 19.714844 0.0859375 C 20.289062 0.140625 20.855469 0.226562 21.417969 0.335938 C 21.980469 0.449219 22.535156 0.585938 23.082031 0.753906 C 23.632812 0.921875 24.171875 1.113281 24.703125 1.332031 C 25.230469 1.550781 25.75 1.796875 26.253906 2.066406 C 26.761719 2.339844 27.253906 2.632812 27.730469 2.953125 C 28.207031 3.269531 28.667969 3.613281 29.109375 3.976562 C 29.554688 4.339844 29.976562 4.722656 30.382812 5.128906 C 30.789062 5.535156 31.175781 5.960938 31.539062 6.402344 C 31.902344 6.847656 32.242188 7.304688 32.5625 7.785156 C 32.878906 8.261719 33.175781 8.75 33.445312 9.257812 C 33.714844 9.761719 33.960938 10.28125 34.179688 10.8125 C 34.398438 11.339844 34.59375 11.878906 34.757812 12.429688 C 34.925781 12.976562 35.066406 13.535156 35.175781 14.097656 C 35.289062 14.660156 35.371094 15.226562 35.429688 15.796875 C 35.484375 16.367188 35.511719 16.941406 35.511719 17.511719 Z M 35.511719 17.511719 " fill-opacity="1" fill-rule="nonzero"/></g><g clip-path="url(#057b6409e1)"><path fill="#4f7cff" d="M 10.484375 9.191406 C 10.484375 9.324219 10.460938 9.453125 10.410156 9.574219 C 10.359375 9.699219 10.285156 9.804688 10.191406 9.898438 C 10.097656 9.992188 9.988281 10.066406 9.867188 10.117188 C 9.742188 10.167969 9.613281 10.195312 9.480469 10.195312 C 9.347656 10.195312 9.21875 10.167969 9.097656 10.117188 C 8.972656 10.066406 8.867188 9.992188 8.773438 9.898438 C 8.679688 9.804688 8.605469 9.699219 8.554688 9.574219 C 8.503906 9.453125 8.476562 9.324219 8.476562 9.191406 C 8.476562 9.058594 8.503906 8.929688 8.554688 8.804688 C 8.605469 8.683594 8.679688 8.574219 8.773438 8.480469 C 8.867188 8.386719 8.972656 8.3125 9.097656 8.261719 C 9.21875 8.210938 9.347656 8.1875 9.480469 8.1875 C 9.613281 8.1875 9.742188 8.210938 9.867188 8.261719 C 9.988281 8.3125 10.097656 8.386719 10.191406 8.480469 C 10.285156 8.574219 10.359375 8.683594 10.410156 8.804688 C 10.460938 8.929688 10.484375 9.058594 10.484375 9.191406 Z M 10.484375 9.191406 " fill-opacity="1" fill-rule="nonzero"/></g><g transform="matrix(1, 0, 0, 1, 7, 9)"><g clip-path="url(#d04133bb01)"><g fill="#4f7cff" fill-opacity="1"><g transform="translate(1.014713, 9.391276)"><g><path d="M 2.34375 -7.78125 L 2.34375 0 L 0.5625 0 L 0.5625 -7.78125 Z M 2.34375 -7.78125 "/></g></g></g><g fill="#4f7cff" fill-opacity="1"><g transform="translate(3.54221, 9.391276)"><g><path d="M 5.0625 -7.78125 L 5.0625 -6.234375 L 2.34375 -6.234375 L 2.34375 -4.6875 L 4.859375 -4.6875 L 4.859375 -3.125 L 2.34375 -3.125 L 2.34375 0 L 0.5625 0 L 0.5625 -7.78125 Z M 5.0625 -7.78125 "/></g></g></g><g fill="#4f7cff" fill-opacity="1"><g transform="translate(8.512328, 9.391276)"><g><path d="M 7.609375 -4.359375 L 7.609375 -2.671875 C 7.398438 -1.742188 6.957031 -1.039062 6.28125 -0.5625 C 5.601562 -0.09375 4.847656 0.140625 4.015625 0.140625 C 2.960938 0.140625 2.066406 -0.25 1.328125 -1.03125 C 0.585938 -1.820312 0.21875 -2.773438 0.21875 -3.890625 C 0.21875 -5.023438 0.578125 -5.976562 1.296875 -6.75 C 2.023438 -7.53125 2.929688 -7.921875 4.015625 -7.921875 C 5.273438 -7.921875 6.273438 -7.476562 7.015625 -6.59375 L 5.84375 -5.328125 C 5.4375 -5.992188 4.859375 -6.328125 4.109375 -6.328125 C 3.566406 -6.328125 3.101562 -6.085938 2.71875 -5.609375 C 2.332031 -5.128906 2.140625 -4.554688 2.140625 -3.890625 C 2.140625 -3.222656 2.332031 -2.65625 2.71875 -2.1875 C 3.101562 -1.71875 3.566406 -1.484375 4.109375 -1.484375 C 4.566406 -1.484375 4.960938 -1.617188 5.296875 -1.890625 C 5.628906 -2.171875 5.796875 -2.535156 5.796875 -2.984375 L 4.015625 -2.984375 L 4.015625 -4.359375 Z M 7.609375 -4.359375 "/></g></g></g><g fill="#4f7cff" fill-opacity="1"><g transform="translate(15.500671, 9.391276)"><g><path d="M 0.078125 -6.234375 L 0.078125 -7.78125 L 5.546875 -7.78125 L 5.546875 -6.234375 L 3.703125 -6.234375 L 3.703125 0 L 1.921875 0 L 1.921875 -6.234375 Z M 0.078125 -6.234375 "/></g></g></g><g fill="#4f7cff" fill-opacity="1"><g transform="translate(20.744731, 9.391276)"><g/></g></g></g></g><g transform="matrix(1, 0, 0, 1, 10, 20)"><g clip-path="url(#49a1d2d900)"><g fill="#ffffff" fill-opacity="1"><g transform="translate(1.171079, 4.364386)"><g><path d="M 1.296875 -2.421875 C 1.429688 -2.421875 1.5625 -2.40625 1.6875 -2.375 C 1.820312 -2.34375 1.921875 -2.3125 1.984375 -2.28125 L 2.078125 -2.234375 L 1.8125 -1.703125 C 1.632812 -1.796875 1.460938 -1.84375 1.296875 -1.84375 C 1.203125 -1.84375 1.132812 -1.832031 1.09375 -1.8125 C 1.0625 -1.800781 1.046875 -1.765625 1.046875 -1.703125 C 1.046875 -1.691406 1.046875 -1.679688 1.046875 -1.671875 C 1.046875 -1.660156 1.050781 -1.648438 1.0625 -1.640625 C 1.070312 -1.628906 1.082031 -1.617188 1.09375 -1.609375 C 1.101562 -1.597656 1.113281 -1.585938 1.125 -1.578125 C 1.144531 -1.566406 1.160156 -1.5625 1.171875 -1.5625 C 1.179688 -1.5625 1.195312 -1.554688 1.21875 -1.546875 C 1.25 -1.535156 1.269531 -1.523438 1.28125 -1.515625 C 1.289062 -1.515625 1.3125 -1.507812 1.34375 -1.5 C 1.375 -1.488281 1.394531 -1.484375 1.40625 -1.484375 C 1.5 -1.453125 1.582031 -1.421875 1.65625 -1.390625 C 1.726562 -1.359375 1.800781 -1.3125 1.875 -1.25 C 1.957031 -1.195312 2.019531 -1.125 2.0625 -1.03125 C 2.101562 -0.945312 2.125 -0.847656 2.125 -0.734375 C 2.125 -0.203125 1.753906 0.0625 1.015625 0.0625 C 0.847656 0.0625 0.6875 0.0351562 0.53125 -0.015625 C 0.382812 -0.0664062 0.273438 -0.117188 0.203125 -0.171875 L 0.109375 -0.25 L 0.4375 -0.796875 C 0.457031 -0.773438 0.488281 -0.75 0.53125 -0.71875 C 0.570312 -0.695312 0.644531 -0.660156 0.75 -0.609375 C 0.851562 -0.554688 0.941406 -0.53125 1.015625 -0.53125 C 1.179688 -0.53125 1.265625 -0.585938 1.265625 -0.703125 C 1.265625 -0.753906 1.242188 -0.789062 1.203125 -0.8125 C 1.160156 -0.84375 1.085938 -0.875 0.984375 -0.90625 C 0.878906 -0.945312 0.800781 -0.984375 0.75 -1.015625 C 0.601562 -1.097656 0.484375 -1.1875 0.390625 -1.28125 C 0.304688 -1.375 0.265625 -1.5 0.265625 -1.65625 C 0.265625 -1.894531 0.359375 -2.082031 0.546875 -2.21875 C 0.734375 -2.351562 0.984375 -2.421875 1.296875 -2.421875 Z M 1.296875 -2.421875 "/></g></g></g><g fill="#ffffff" fill-opacity="1"><g transform="translate(3.20134, 4.364386)"><g><path d="M 0.40625 -2.34375 L 0.40625 -3.21875 L 1.21875 -3.21875 L 1.21875 -2.34375 L 1.71875 -2.34375 L 1.71875 -1.734375 L 1.21875 -1.734375 L 1.21875 -0.984375 C 1.21875 -0.765625 1.28125 -0.65625 1.40625 -0.65625 C 1.4375 -0.65625 1.46875 -0.660156 1.5 -0.671875 C 1.53125 -0.691406 1.554688 -0.707031 1.578125 -0.71875 L 1.609375 -0.734375 L 1.8125 -0.078125 C 1.632812 0.0117188 1.4375 0.0625 1.21875 0.0625 C 1.0625 0.0625 0.925781 0.0351562 0.8125 -0.015625 C 0.707031 -0.0664062 0.625 -0.132812 0.5625 -0.21875 C 0.507812 -0.3125 0.46875 -0.40625 0.4375 -0.5 C 0.414062 -0.601562 0.40625 -0.710938 0.40625 -0.828125 L 0.40625 -1.734375 L 0.078125 -1.734375 L 0.078125 -2.34375 Z M 0.40625 -2.34375 "/></g></g></g><g fill="#ffffff" fill-opacity="1"><g transform="translate(4.828299, 4.364386)"><g><path d="M 1.046875 -2.34375 L 1.046875 -1.234375 C 1.046875 -1.003906 1.078125 -0.835938 1.140625 -0.734375 C 1.210938 -0.640625 1.332031 -0.59375 1.5 -0.59375 C 1.664062 -0.59375 1.785156 -0.640625 1.859375 -0.734375 C 1.929688 -0.835938 1.96875 -1.003906 1.96875 -1.234375 L 1.96875 -2.34375 L 2.78125 -2.34375 L 2.78125 -1.03125 C 2.78125 -0.644531 2.675781 -0.363281 2.46875 -0.1875 C 2.269531 -0.0195312 1.945312 0.0625 1.5 0.0625 C 1.0625 0.0625 0.738281 -0.0195312 0.53125 -0.1875 C 0.332031 -0.363281 0.234375 -0.644531 0.234375 -1.03125 L 0.234375 -2.34375 Z M 1.046875 -2.34375 "/></g></g></g><g clip-path="url(#820a023572)"><g fill="#ffffff" fill-opacity="1"><g transform="translate(7.651417, 4.364386)"><g><path d="M 0.4375 -0.296875 C 0.21875 -0.535156 0.109375 -0.828125 0.109375 -1.171875 C 0.109375 -1.515625 0.21875 -1.804688 0.4375 -2.046875 C 0.65625 -2.296875 0.929688 -2.421875 1.265625 -2.421875 C 1.578125 -2.421875 1.835938 -2.320312 2.046875 -2.125 L 2.046875 -3.9375 L 2.859375 -3.9375 L 2.859375 0 L 2.046875 0 L 2.046875 -0.265625 C 1.835938 -0.046875 1.578125 0.0625 1.265625 0.0625 C 0.929688 0.0625 0.65625 -0.0546875 0.4375 -0.296875 Z M 1.125 -1.5625 C 1.019531 -1.46875 0.96875 -1.335938 0.96875 -1.171875 C 0.96875 -1.003906 1.015625 -0.867188 1.109375 -0.765625 C 1.210938 -0.671875 1.347656 -0.625 1.515625 -0.625 C 1.671875 -0.625 1.800781 -0.675781 1.90625 -0.78125 C 2.007812 -0.882812 2.0625 -1.015625 2.0625 -1.171875 C 2.0625 -1.335938 2.007812 -1.46875 1.90625 -1.5625 C 1.800781 -1.664062 1.671875 -1.71875 1.515625 -1.71875 C 1.359375 -1.71875 1.226562 -1.664062 1.125 -1.5625 Z M 1.125 -1.5625 "/></g></g></g></g><g clip-path="url(#6fb75fb816)"><g fill="#ffffff" fill-opacity="1"><g transform="translate(10.598276, 4.364386)"><g><path d="M 0.34375 -3.65625 C 0.445312 -3.75 0.5625 -3.796875 0.6875 -3.796875 C 0.820312 -3.796875 0.9375 -3.75 1.03125 -3.65625 C 1.125 -3.5625 1.171875 -3.445312 1.171875 -3.3125 C 1.171875 -3.1875 1.125 -3.078125 1.03125 -2.984375 C 0.9375 -2.890625 0.820312 -2.84375 0.6875 -2.84375 C 0.5625 -2.84375 0.445312 -2.890625 0.34375 -2.984375 C 0.25 -3.078125 0.203125 -3.1875 0.203125 -3.3125 C 0.203125 -3.445312 0.25 -3.5625 0.34375 -3.65625 Z M 0.28125 -2.34375 L 0.28125 0 L 1.078125 0 L 1.078125 -2.34375 Z M 0.28125 -2.34375 "/></g></g></g></g><g clip-path="url(#92005616da)"><g fill="#ffffff" fill-opacity="1"><g transform="translate(11.799017, 4.364386)"><g><path d="M 0.5 -0.28125 C 0.238281 -0.507812 0.109375 -0.804688 0.109375 -1.171875 C 0.109375 -1.535156 0.242188 -1.832031 0.515625 -2.0625 C 0.785156 -2.300781 1.117188 -2.421875 1.515625 -2.421875 C 1.910156 -2.421875 2.242188 -2.300781 2.515625 -2.0625 C 2.785156 -1.832031 2.921875 -1.535156 2.921875 -1.171875 C 2.921875 -0.804688 2.785156 -0.507812 2.515625 -0.28125 C 2.253906 -0.0507812 1.921875 0.0625 1.515625 0.0625 C 1.097656 0.0625 0.757812 -0.0507812 0.5 -0.28125 Z M 1.125 -1.5625 C 1.019531 -1.46875 0.96875 -1.335938 0.96875 -1.171875 C 0.96875 -1.003906 1.015625 -0.867188 1.109375 -0.765625 C 1.210938 -0.671875 1.347656 -0.625 1.515625 -0.625 C 1.671875 -0.625 1.800781 -0.675781 1.90625 -0.78125 C 2.007812 -0.882812 2.0625 -1.015625 2.0625 -1.171875 C 2.0625 -1.335938 2.007812 -1.46875 1.90625 -1.5625 C 1.800781 -1.664062 1.671875 -1.71875 1.515625 -1.71875 C 1.359375 -1.71875 1.226562 -1.664062 1.125 -1.5625 Z M 1.125 -1.5625 "/></g></g></g></g></g></g></svg>